<svg width="107" height="125" viewBox="0 0 107 125" fill="none" xmlns="http://www.w3.org/2000/svg">
<path d="M104.313 34.6619L72.1564 2.50563C71.5164 1.8649 70.7565 1.3566 69.92 1.00977C69.0835 0.662953 68.1868 0.484417 67.2812 0.484375H12.1562C9.1104 0.484375 6.18931 1.69433 4.03557 3.84807C1.88183 6.00181 0.671875 8.9229 0.671875 11.9688V113.031C0.671875 116.077 1.88183 118.998 4.03557 121.152C6.18931 123.306 9.1104 124.516 12.1562 124.516H94.8438C97.8896 124.516 100.811 123.306 102.964 121.152C105.118 118.998 106.328 116.077 106.328 113.031V39.5312C106.328 37.7052 105.603 35.9538 104.313 34.6619ZM85.082 34.9375H71.875V21.7305L85.082 34.9375ZM14.4531 110.734V14.2656H58.0938V41.8281C58.0938 43.6556 58.8197 45.4083 60.112 46.7005C61.4042 47.9928 63.1569 48.7187 64.9844 48.7188H92.5469V110.734H14.4531ZM72.1564 67.3751L63.2617 76.2812L72.1736 85.1874C73.4681 86.4819 74.1953 88.2376 74.1953 90.0682C74.1953 91.8989 73.4681 93.6546 72.1736 94.9491C70.8791 96.2436 69.1234 96.9708 67.2927 96.9708C65.4621 96.9708 63.7064 96.2436 62.4119 94.9491L53.5 86.043L44.5939 94.9548C43.2994 96.2493 41.5437 96.9766 39.713 96.9766C37.8823 96.9766 36.1266 96.2493 34.8321 94.9548C33.5377 93.6604 32.8104 91.9047 32.8104 90.074C32.8104 88.2433 33.5377 86.4876 34.8321 85.1931L43.7383 76.2812L34.8436 67.3751C34.2027 66.7342 33.6942 65.9732 33.3473 65.1358C33.0005 64.2983 32.8219 63.4007 32.8219 62.4943C32.8219 61.5878 33.0005 60.6902 33.3473 59.8528C33.6942 59.0153 34.2027 58.2544 34.8436 57.6134C35.4846 56.9724 36.2455 56.464 37.083 56.1171C37.9205 55.7702 38.818 55.5917 39.7245 55.5917C40.631 55.5917 41.5285 55.7702 42.366 56.1171C43.2035 56.464 43.9644 56.9724 44.6054 57.6134L53.5 66.5195L62.4061 57.6077C63.0471 56.9667 63.808 56.4583 64.6455 56.1114C65.483 55.7645 66.3805 55.5859 67.287 55.5859C68.1934 55.5859 69.091 55.7645 69.9285 56.1114C70.766 56.4583 71.5269 56.9667 72.1678 57.6077C72.8088 58.2486 73.3173 59.0096 73.6641 59.847C74.011 60.6845 74.1896 61.5821 74.1896 62.4885C74.1896 63.395 74.011 64.2926 73.6641 65.13C73.3173 65.9675 72.8088 66.7284 72.1678 67.3694L72.1564 67.3751Z" fill="white"/>
</svg>
