<svg width="12" height="14" viewBox="0 0 12 14" fill="none" xmlns="http://www.w3.org/2000/svg">
<path d="M11.3178 3.57161C11.5878 3.3016 11.7364 2.94301 11.7364 2.56156C11.7364 2.18011 11.5878 1.82152 11.3178 1.55151L10.1849 0.418593C9.91485 0.148579 9.55626 0 9.17481 0C8.79336 0 8.43477 0.148579 8.16547 0.417879L0.570801 7.98898V11.1427H3.7231L11.3178 3.57161ZM9.17481 1.42864L10.3084 2.56085L9.17267 3.69233L8.03975 2.56013L9.17481 1.42864ZM1.99945 9.71407V8.58187L7.02827 3.56875L8.16119 4.70167L3.13307 9.71407H1.99945ZM0.570801 12.5714H12V14H0.570801V12.5714Z" fill="#333333"/>
</svg>
