<svg width="17" height="15" viewBox="0 0 17 15" fill="none" xmlns="http://www.w3.org/2000/svg">
<path d="M15.5224 3.61111H10.8557C10.6495 3.61111 10.4516 3.69306 10.3058 3.83892C10.1599 3.98478 10.078 4.18261 10.078 4.38889V6.72222H8.52241V1.27778C8.52241 1.0715 8.44046 0.873667 8.2946 0.727806C8.14874 0.581944 7.95091 0.5 7.74463 0.5H1.52241C1.31613 0.5 1.1183 0.581944 0.972435 0.727806C0.826573 0.873667 0.744629 1.0715 0.744629 1.27778V13.7222C0.744629 13.9285 0.826573 14.1263 0.972435 14.2722C1.1183 14.4181 1.31613 14.5 1.52241 14.5H15.5224C15.7287 14.5 15.9265 14.4181 16.0724 14.2722C16.2182 14.1263 16.3002 13.9285 16.3002 13.7222V4.38889C16.3002 4.18261 16.2182 3.98478 16.0724 3.83892C15.9265 3.69306 15.7287 3.61111 15.5224 3.61111ZM5.4113 2.83333H6.96685V4.38889H5.4113V2.83333ZM3.85574 10.6111H2.30018V9.05556H3.85574V10.6111ZM3.85574 7.5H2.30018V5.94444H3.85574V7.5ZM3.85574 4.38889H2.30018V2.83333H3.85574V4.38889ZM6.96685 10.6111H5.4113V9.05556H6.96685V10.6111ZM6.96685 7.5H5.4113V5.94444H6.96685V7.5ZM13.9669 10.6111H12.4113V9.05556H13.9669V10.6111ZM13.9669 7.5H12.4113V5.94444H13.9669V7.5Z" fill="white"/>
</svg>
