<svg width="15" height="15" viewBox="0 0 15 15" fill="none" xmlns="http://www.w3.org/2000/svg">
<path d="M7.85547 0.5C3.99567 0.5 0.855469 3.6402 0.855469 7.5C0.855469 11.3598 3.99567 14.5 7.85547 14.5C11.7153 14.5 14.8555 11.3598 14.8555 7.5C14.8555 3.6402 11.7153 0.5 7.85547 0.5ZM7.85547 13.1C4.76777 13.1 2.25547 10.5877 2.25547 7.5C2.25547 4.4123 4.76777 1.9 7.85547 1.9C10.9432 1.9 13.4555 4.4123 13.4555 7.5C13.4555 10.5877 10.9432 13.1 7.85547 13.1Z" fill="white"/>
<path d="M7.15527 6.8H8.55527V11H7.15527V6.8ZM7.15527 4H8.55527V5.4H7.15527V4Z" fill="white"/>
</svg>
