<svg width="21" height="21" viewBox="0 0 21 21" fill="none" xmlns="http://www.w3.org/2000/svg">
<path d="M20.5576 18.4371C20.8393 18.7188 20.9975 19.1008 20.9975 19.4992C20.9975 19.8976 20.8393 20.2796 20.5576 20.5613C20.2759 20.843 19.8938 21.0013 19.4955 21.0013C19.0971 21.0013 18.715 20.843 18.4333 20.5613L10.5 12.6255L2.56416 20.5588C2.28247 20.8405 1.90042 20.9988 1.50205 20.9988C1.10368 20.9988 0.72163 20.8405 0.439941 20.5588C0.158252 20.2771 5.93616e-09 19.8951 0 19.4967C-5.93616e-09 19.0983 0.158252 18.7163 0.439941 18.4346L8.37578 10.5013L0.442439 2.56541C0.16075 2.28372 0.00249914 1.90167 0.00249914 1.5033C0.00249914 1.10493 0.16075 0.722879 0.442439 0.44119C0.724129 0.159501 1.10618 0.00124934 1.50455 0.00124933C1.90292 0.00124933 2.28497 0.159501 2.56666 0.44119L10.5 8.37703L18.4358 0.43994C18.7175 0.158251 19.0996 -6.63683e-09 19.4979 0C19.8963 6.63683e-09 20.2784 0.158251 20.5601 0.43994C20.8417 0.72163 21 1.10368 21 1.50205C21 1.90042 20.8417 2.28247 20.5601 2.56416L12.6242 10.5013L20.5576 18.4371Z" fill="#CC0000"/>
</svg>
