<svg width="18" height="18" viewBox="0 0 18 18" fill="none" xmlns="http://www.w3.org/2000/svg">
<path d="M15.1876 3.37503H2.81251C2.58873 3.37503 2.37412 3.46392 2.21588 3.62216C2.05765 3.78039 1.96875 3.99501 1.96875 4.21879C1.96875 4.44256 2.05765 4.65718 2.21588 4.81541C2.37412 4.97365 2.58873 5.06254 2.81251 5.06254H3.09376V14.6251C3.09376 14.9981 3.24192 15.3558 3.50565 15.6195C3.76937 15.8832 4.12706 16.0314 4.50002 16.0314H13.5001C13.8731 16.0314 14.2308 15.8832 14.4945 15.6195C14.7582 15.3558 14.9064 14.9981 14.9064 14.6251V5.06254H15.1876C15.4114 5.06254 15.626 4.97365 15.7843 4.81541C15.9425 4.65718 16.0314 4.44256 16.0314 4.21879C16.0314 3.99501 15.9425 3.78039 15.7843 3.62216C15.626 3.46392 15.4114 3.37503 15.1876 3.37503ZM13.2189 14.3439H4.78128V5.06254H13.2189V14.3439ZM5.34378 1.40626C5.34378 1.18248 5.43268 0.967866 5.59091 0.809631C5.74915 0.651396 5.96376 0.5625 6.18754 0.5625H11.8126C12.0364 0.5625 12.251 0.651396 12.4092 0.809631C12.5675 0.967866 12.6564 1.18248 12.6564 1.40626C12.6564 1.63004 12.5675 1.84465 12.4092 2.00289C12.251 2.16112 12.0364 2.25002 11.8126 2.25002H6.18754C5.96376 2.25002 5.74915 2.16112 5.59091 2.00289C5.43268 1.84465 5.34378 1.63004 5.34378 1.40626Z" fill="#333333"/>
</svg>
