<svg width="390" height="390" viewBox="0 0 390 390" fill="none" xmlns="http://www.w3.org/2000/svg">
<rect width="390" height="390" rx="80" fill="white"/>
<path d="M167.295 259H95.9458V231.253H113.783V148.012H95.9458V120.265H167.295V148.012H149.458V231.253H167.295V259ZM257.458 259L255.476 249.09C249.266 253.186 242.858 256.225 236.251 258.207C229.777 260.057 224.294 260.982 219.801 260.982H210.883C201.898 260.982 194.697 258.273 189.279 252.856C183.862 247.439 181.154 240.238 181.154 231.253V185.668C181.154 175.759 183.928 168.029 189.478 162.48C195.159 156.798 202.955 153.957 212.865 153.957H253.494V120.265H288.178V259H257.458ZM229.711 232.244C236.714 232.244 244.642 230.923 253.494 228.28V180.714H223.765C218.48 180.714 215.837 183.356 215.837 188.641V225.307C215.837 227.289 216.498 228.941 217.819 230.262C219.141 231.583 220.792 232.244 222.774 232.244H229.711Z" fill="#CC0000"/>
</svg>
